<?xml version="1.0" encoding="utf-8"?>
<!-- Generator: Adobe Illustrator 16.0.0, SVG Export Plug-In . SVG Version: 6.00 Build 0)  -->
<!DOCTYPE svg PUBLIC "-//W3C//DTD SVG 1.1//EN" "http://www.w3.org/Graphics/SVG/1.1/DTD/svg11.dtd">
<svg version="1.1" xmlns="http://www.w3.org/2000/svg" xmlns:xlink="http://www.w3.org/1999/xlink" x="0px" y="0px" width="200px"
	 height="200px" viewBox="0 0 200 200" enable-background="new 0 0 200 200" xml:space="preserve">
<g id="Layer_5" display="none">
	<g id="Layer_3" display="inline">
		<g>
			<path fill="#FE4DB5" stroke="#FB0497" stroke-width="2" stroke-miterlimit="10" d="M156.646,117.279l-10.834,52.666
				c0,0-45.333,11.168-89.666,0l-9.167-49.332C46.979,120.613,98.813,87.946,156.646,117.279z"/>
			<path fill="#FF27A8" d="M56.579,116.139c0,0,4.6,63.02,83.851,53.895c0,0-41.501,10.166-83.751-1.041l-9-47.875
				c0,0-0.148-1.072,7.867-4.819L56.579,116.139z"/>
			<polygon fill="#FB0497" points="55.112,116.364 67.937,164.65 60.621,113.989 			"/>
			<polygon fill="#FB0497" points="74.72,109.277 84.812,167.525 81.603,107.627 			"/>
			<polygon fill="#FB0497" points="98.431,105.304 101.062,166.775 104.937,105.053 			"/>
			<polyline fill="#FB0497" points="122.737,106.317 117.437,169.15 129.062,107.627 122.175,106.232 			"/>
			<polygon fill="#FB0497" points="135.062,164.65 148.551,113.552 144.425,111.933 			"/>
		</g>
	</g>
	<path display="inline" fill="#63CAD3" stroke="#0077B2" stroke-width="2" stroke-miterlimit="10" d="M59.728,114.442"/>
</g>
<g id="Layer_7" display="none">
	<path display="inline" fill="#63CAD3" stroke="#0077B2" stroke-width="2" stroke-miterlimit="10" d="M101.243,54.567"/>
	<path display="inline" fill="#63CAD3" stroke="#0077B2" stroke-width="2" stroke-miterlimit="10" d="M101.771,57.567"/>
	<path display="inline" fill="#63CAD3" d="M99.312,50.192"/>
	<path display="inline" fill="#C8E3F5" d="M142.729,72.36c0-1.886,1.529-3.416,3.416-3.416l0,0c1.887,0,3.416,1.53,3.416,3.416l0,0
		c0,1.886-1.529,3.416-3.416,3.416l0,0C144.258,75.776,142.729,74.247,142.729,72.36L142.729,72.36z"/>
	<g display="inline">
		<path fill="#63CAD3" stroke="#C8E3F5" stroke-width="2" stroke-miterlimit="10" d="M59.728,115.442
			c-2.797,2.165-6.281,3.405-9.711,4.136c-10.617,2.262-18.72-4.547-21.512-14.313c-2.704-9.455-0.117-16.812,8.806-21.489
			c-0.187,0.096-2.305-5.016-2.423-5.358c-0.962-2.799-1.503-5.783-1.013-8.733c1.081-6.508,6.882-12.59,13.272-14.126
			c3.6-0.865,8.436-0.3,11.76,1.384c-0.815-0.413,1.014-7.017,1.195-7.595c2.299-7.301,7.9-13.318,15.511-15.069
			c8.345-1.92,18.53-0.692,24.531,5.831c0.338,0.208,3.906-2.02,4.279-2.219c7.216-3.865,15.751-6.505,23.919-4.608
			c11.22,2.605,18.994,13.567,17.302,25.161c0.189-1.298,7.941-1.555,8.789-1.525c2.446,0.088,5.026,0.509,7.141,1.813
			c4.275,2.639,7.022,7.092,8.416,11.819c1.576,5.345,0.021,10.399-2.846,15.058c0.195-0.317,4.706,4.658,4.889,4.906
			c3.927,5.34,3.701,11.324,0.814,17.024c-2.39,4.719-6.831,9.535-12.609,9.652c-3.303,0.066-6.826-1.351-9.76-2.749
			c0,0-3,8.667-14.667,9.501c0,0-7.667,1.666-16.667-6.668"/>
		<path fill="#63CAD3" stroke="#C8E3F5" stroke-width="2" stroke-miterlimit="10" d="M106.396,101.86
			c0.159-3.848,4.196-6.902,7.798-6.084c3.445,0.782,5.9,3.885,7.039,7.076c2.184,6.119-0.218,11.471-3.921,16.424
			c0,0-11.999,14.166-27.75-2.5c0,0-15.586,15.834-29.836-2.334c-2.651-3.381-1.438-10.762,2.18-13.131
			c2.614-1.713,6.195-1.268,8.686,0.55"/>
		<path fill="#C8E3F5" d="M52.688,72.101c0-2.03,1.646-3.675,3.676-3.675l0,0c2.029,0,3.676,1.646,3.676,3.675l0,0
			c0,2.03-1.646,3.676-3.676,3.676l0,0C54.334,75.776,52.688,74.131,52.688,72.101L52.688,72.101z"/>
		<path fill="#C8E3F5" d="M105.379,101.264c0-2.116,1.716-3.832,3.832-3.832l0,0c2.116,0,3.832,1.716,3.832,3.832l0,0
			c0,2.117-1.716,3.832-3.832,3.832l0,0C107.095,105.096,105.379,103.381,105.379,101.264L105.379,101.264z"/>
		<path fill="#C8E3F5" d="M141.451,72.36c0-2.116,1.716-3.832,3.832-3.832l0,0c2.116,0,3.832,1.716,3.832,3.832l0,0
			c0,2.117-1.716,3.833-3.832,3.833l0,0C143.167,76.192,141.451,74.477,141.451,72.36L141.451,72.36z"/>
		<path fill="#C8E3F5" d="M64.784,104.026c0-2.132,1.729-3.86,3.861-3.86l0,0c2.131,0,3.859,1.729,3.859,3.86l0,0
			c0,2.132-1.729,3.861-3.859,3.861l0,0C66.513,107.888,64.784,106.158,64.784,104.026L64.784,104.026z"/>
		<path fill="none" stroke="#C8E3F5" stroke-width="2" stroke-miterlimit="10" d="M58.177,56.603
			c2.279,0.965,4.451,2.758,5.726,4.874c2.052,3.406,2.517,8.776,0.11,12.092c-2.61,3.595-7.43,4.146-10.027,0
			c0,0-2.158-3.748,3.992-2.126"/>
		<path fill="none" stroke="#C8E3F5" stroke-width="2" stroke-miterlimit="10" d="M146.303,57.879
			c-0.509,0.233-1.01,0.484-1.501,0.752c-1.172,0.64-2.296,1.378-3.31,2.249c-1.191,1.022-2.241,2.231-3.026,3.595
			c-1.403,2.437-1.084,5.694,0.111,8.146c1.275,2.618,4.676,5.449,7.675,3.483c0.613-0.402,1.362-1.031,1.76-1.654
			c0.33-0.517,0.626-1.359,0.475-1.986c-0.605-2.509-3.833-2.976-4.675-0.355"/>
	</g>
</g>
<g id="sprinkles">
	<g>
		<path fill="#FFFFFF" d="M87.526,62.276c0-0.783,0.633-1.417,1.416-1.417h7.161c0.782,0,1.417,0.634,1.417,1.417l0,0
			c0,0.783-0.635,1.417-1.417,1.417h-7.161C88.159,63.693,87.526,63.059,87.526,62.276L87.526,62.276z"/>
		<path fill="#FF25A0" d="M73.336,64.28c0.354-0.698,1.206-0.977,1.903-0.624l6.389,3.236c0.698,0.354,0.978,1.206,0.624,1.904l0,0
			c-0.354,0.698-1.206,0.977-1.903,0.624l-6.389-3.236C73.261,65.831,72.982,64.979,73.336,64.28L73.336,64.28z"/>
		<path d="M71.698,49.479c-0.336-0.707-0.037-1.551,0.67-1.888l6.463-3.083c0.707-0.337,1.553-0.038,1.889,0.669l0,0
			c0.338,0.707,0.037,1.551-0.668,1.888l-6.465,3.083C72.881,50.485,72.036,50.186,71.698,49.479L71.698,49.479z"/>
		<path fill="#FFFFFF" d="M115.218,72.944c0-0.783,0.635-1.417,1.417-1.417h7.161c0.783,0,1.416,0.634,1.416,1.417l0,0
			c0,0.783-0.633,1.417-1.416,1.417h-7.161C115.853,74.36,115.218,73.727,115.218,72.944L115.218,72.944z"/>
		<path fill="#FF25A0" d="M101.028,74.948c0.354-0.698,1.205-0.977,1.904-0.624l6.388,3.236c0.698,0.354,0.978,1.206,0.624,1.904
			l0,0c-0.354,0.698-1.205,0.977-1.904,0.624l-6.389-3.236C100.954,76.498,100.675,75.646,101.028,74.948L101.028,74.948z"/>
		<path fill="#FFFFFF" d="M124.237,54.979c0-0.783,0.635-1.417,1.417-1.417h7.161c0.783,0,1.416,0.634,1.416,1.417l0,0
			c0,0.783-0.633,1.417-1.416,1.417h-7.161C124.872,56.396,124.237,55.762,124.237,54.979L124.237,54.979z"/>
		<path fill="#FF25A0" d="M110.048,56.983c0.354-0.698,1.205-0.977,1.904-0.624l6.388,3.236c0.698,0.354,0.978,1.206,0.624,1.904
			l0,0c-0.354,0.698-1.205,0.977-1.904,0.624l-6.389-3.236C109.974,58.533,109.694,57.681,110.048,56.983L110.048,56.983z"/>
		<path d="M121.243,40.093c0.396-0.675,1.265-0.9,1.938-0.504l6.176,3.627c0.675,0.396,0.9,1.264,0.504,1.939l0,0
			c-0.396,0.675-1.264,0.9-1.938,0.504l-6.175-3.626C121.072,41.635,120.847,40.768,121.243,40.093L121.243,40.093z"/>
		<path fill="#FFFFFF" d="M146.571,98.036c0-0.783,0.635-1.417,1.417-1.417h7.161c0.783,0,1.416,0.634,1.416,1.417l0,0
			c0,0.783-0.633,1.417-1.416,1.417h-7.161C147.206,99.452,146.571,98.818,146.571,98.036L146.571,98.036z"/>
		<path fill="#FF25A0" d="M132.382,100.039c0.354-0.698,1.205-0.977,1.904-0.623l6.388,3.236c0.698,0.354,0.978,1.205,0.624,1.904
			l0,0c-0.354,0.697-1.205,0.977-1.904,0.623l-6.389-3.236C132.308,101.59,132.028,100.738,132.382,100.039L132.382,100.039z"/>
		<path d="M138.87,91.061c-0.337-0.707-0.037-1.551,0.669-1.888l6.464-3.083c0.707-0.337,1.552-0.038,1.889,0.669l0,0
			c0.337,0.707,0.037,1.551-0.669,1.888l-6.464,3.083C140.052,92.067,139.207,91.768,138.87,91.061L138.87,91.061z"/>
		<path d="M85.879,101.483c0.398-0.674,1.267-0.896,1.94-0.498l6.164,3.646c0.674,0.398,0.896,1.267,0.498,1.94l0,0
			c-0.398,0.674-1.267,0.896-1.94,0.498l-6.163-3.646C85.703,103.025,85.48,102.156,85.879,101.483L85.879,101.483z"/>
		<path d="M90.22,84.676c-0.695-0.361-0.965-1.215-0.604-1.91l3.301-6.355c0.361-0.694,1.216-0.964,1.91-0.604l0,0
			c0.695,0.361,0.965,1.215,0.604,1.91l-3.301,6.354C91.769,84.767,90.913,85.037,90.22,84.676L90.22,84.676z"/>
		<path fill="#FFFFFF" d="M73.487,84.234c0.27-0.735,1.083-1.112,1.817-0.843l6.725,2.462c0.735,0.269,1.112,1.082,0.843,1.817l0,0
			c-0.27,0.735-1.081,1.112-1.816,0.843l-6.725-2.462C73.597,85.782,73.218,84.969,73.487,84.234L73.487,84.234z"/>
		<path fill="#FFFFFF" d="M42.772,66.551c-0.39-0.679-0.154-1.544,0.523-1.935l6.209-3.568c0.679-0.39,1.543-0.156,1.934,0.522l0,0
			c0.39,0.679,0.156,1.543-0.522,1.934l-6.209,3.568C44.028,67.463,43.163,67.23,42.772,66.551L42.772,66.551z"/>
		<path fill="#FF25A0" d="M37.698,107.99c-0.164-0.765,0.322-1.518,1.088-1.682l7.002-1.5c0.766-0.165,1.518,0.322,1.683,1.088l0,0
			c0.164,0.765-0.323,1.518-1.089,1.682l-7.002,1.501C38.615,109.242,37.862,108.756,37.698,107.99L37.698,107.99z"/>
		<path d="M43.18,86.148c0.393-0.677,1.259-0.907,1.937-0.515l6.194,3.593c0.677,0.394,0.907,1.259,0.515,1.937l0,0
			c-0.393,0.677-1.26,0.907-1.936,0.515l-6.195-3.593C43.017,87.692,42.787,86.826,43.18,86.148L43.18,86.148z"/>
	</g>
</g>
<g id="cheery" display="none">
	<g display="inline">
		<circle fill="#FB0395" cx="100.875" cy="30.938" r="13.938"/>
		<circle fill="#FE58BB" cx="106.724" cy="25.583" r="4.338"/>
	</g>
</g>
</svg>
