<?xml version="1.0" encoding="utf-8"?>
<!-- Generator: Adobe Illustrator 16.0.0, SVG Export Plug-In . SVG Version: 6.00 Build 0)  -->
<!DOCTYPE svg PUBLIC "-//W3C//DTD SVG 1.1//EN" "http://www.w3.org/Graphics/SVG/1.1/DTD/svg11.dtd">
<svg version="1.1" id="Layer_1" xmlns="http://www.w3.org/2000/svg" xmlns:xlink="http://www.w3.org/1999/xlink" x="0px" y="0px"
	 width="135px" height="55px" viewBox="0 0 135 55" enable-background="new 0 0 135 55" xml:space="preserve">
<g>
	<path d="M17.127,35.254c-4.184,0-7.736-1.754-10.656-5.262S2.09,22.735,2.09,18.745c0-4.795,1.533-8.886,4.598-12.273
		s6.625-5.081,10.68-5.081c3.814,0,7.233,1.722,10.258,5.165c3.025,3.444,4.538,7.354,4.538,11.73c0,4.505-1.517,8.46-4.55,11.863
		C24.582,33.553,21.086,35.254,17.127,35.254z M17.224,2.622c-1.771,0-3.359,0.406-4.767,1.219
		c-1.408,0.813-2.365,2.225-2.872,4.236c-0.507,2.012-0.761,5.52-0.761,10.524c0,3.459,0.145,6.219,0.435,8.279
		s1.026,3.765,2.208,5.117c1.183,1.352,3.037,2.027,5.563,2.027c1.545,0,3.093-0.41,4.646-1.231c1.553-0.82,2.566-2.434,3.041-4.839
		c0.475-2.406,0.712-6.103,0.712-11.091c0-4.521-0.293-7.643-0.881-9.365c-0.587-1.722-1.529-2.965-2.824-3.729
		C20.43,3.004,18.929,2.622,17.224,2.622z"/>
	<path d="M38.328,33.48V8.559h-2.876V7.533h2.755c1.851,0,3.198-0.101,4.043-0.302V33.48h2.836v1.025h-9.634V33.48H38.328z"/>
	<path d="M53.614,18.395V33.48h2.635v1.025h-9.353V33.48h2.816V19.722h-2.816v-1.026h2.856
		C51.12,18.696,52.407,18.596,53.614,18.395z M49.571,10.651c0-0.59,0.218-1.099,0.654-1.529c0.436-0.429,0.949-0.644,1.539-0.644
		s1.103,0.211,1.539,0.634c0.436,0.422,0.653,0.935,0.653,1.539c0,0.63-0.214,1.153-0.644,1.569
		c-0.429,0.416-0.945,0.624-1.549,0.624c-0.603,0-1.12-0.211-1.549-0.634C49.785,11.787,49.571,11.268,49.571,10.651z"/>
	<path d="M74.914,19.722l-7.623,15.407h-0.523l-7.744-15.407h-2.434v-1.026h9.875v1.026h-3.037l5.27,10.701l5.189-10.701h-3.037
		v-1.026h6.537v1.026H74.914z"/>
	<path d="M85.957,18.395V33.48h2.635v1.025h-9.353V33.48h2.815V19.722h-2.815v-1.026h2.856
		C83.463,18.696,84.75,18.596,85.957,18.395z M81.914,10.651c0-0.59,0.218-1.099,0.654-1.529c0.436-0.429,0.948-0.644,1.538-0.644
		s1.103,0.211,1.539,0.634c0.436,0.422,0.653,0.935,0.653,1.539c0,0.63-0.215,1.153-0.644,1.569
		c-0.429,0.416-0.945,0.624-1.549,0.624s-1.119-0.211-1.549-0.634C82.129,11.787,81.914,11.268,81.914,10.651z"/>
	<path d="M101.485,25.475v-2.051c0-1.676-0.138-2.776-0.413-3.299c-0.274-0.523-1.016-0.785-2.223-0.785
		c-2.172,0-3.258,0.416-3.258,1.247c0,0.242,0.09,0.506,0.271,0.795c0.181,0.288,0.271,0.627,0.271,1.016
		c0,0.55-0.182,0.969-0.543,1.257c-0.362,0.289-0.771,0.433-1.228,0.433c-0.59,0-1.046-0.184-1.367-0.553
		c-0.322-0.369-0.483-0.801-0.483-1.297c0-1.073,0.627-1.974,1.881-2.705s3-1.096,5.24-1.096c1.796,0,3.11,0.208,3.942,0.624
		c0.831,0.416,1.344,0.932,1.538,1.549s0.292,1.488,0.292,2.615v7.402c0,1.086,0.077,1.764,0.231,2.031
		c0.153,0.269,0.392,0.402,0.714,0.402c0.482,0,0.952-0.328,1.408-0.985h0.482c-0.349,1.958-1.488,2.937-3.419,2.937
		c-1.864,0-2.978-1.072-3.339-3.219c-1.569,2.146-3.406,3.219-5.512,3.219c-1.395,0-2.508-0.379-3.339-1.137
		c-0.832-0.757-1.247-1.686-1.247-2.785C91.388,27.667,94.753,25.796,101.485,25.475z M101.485,28.572V26.4
		c-2.481,0.094-4.117,0.466-4.908,1.117s-1.187,1.592-1.187,2.826c0,0.898,0.237,1.596,0.714,2.092
		c0.476,0.496,1.022,0.744,1.64,0.744c0.791,0,1.505-0.265,2.142-0.795c0.637-0.529,1.063-1.063,1.277-1.599
		C101.377,30.249,101.485,29.511,101.485,28.572z"/>
	<path d="M114.398,18.153l-0.624-0.664c2.414-2.105,3.62-4.03,3.62-5.773c0-1.18-0.261-1.77-0.784-1.77
		c-0.215,0-0.396,0.221-0.543,0.664c-0.349,1.046-1.032,1.569-2.052,1.569c-0.604,0-1.109-0.218-1.519-0.654
		c-0.409-0.436-0.613-0.989-0.613-1.66c0-0.764,0.281-1.394,0.845-1.891c0.563-0.496,1.254-0.744,2.071-0.744
		c1.033,0,1.918,0.386,2.655,1.157s1.106,1.747,1.106,2.926C118.562,13.527,117.174,15.807,114.398,18.153z"/>
	<path d="M132.399,18.515v4.506h-0.825c-0.616-2.615-2.118-3.922-4.505-3.922c-1.033,0-1.895,0.271-2.585,0.814
		c-0.69,0.543-1.036,1.164-1.036,1.861c0,0.59,0.245,1.056,0.734,1.398c0.489,0.342,1.646,0.633,3.47,0.875
		c4.01,0.496,6.014,2.32,6.014,5.471c0,1.569-0.52,2.876-1.559,3.922s-2.33,1.569-3.872,1.569c-1.515,0-2.983-0.624-4.404-1.871
		l-1.408,1.207h-0.704v-5.934h0.704c1.153,3.795,3.091,5.692,5.813,5.692c1.033,0,1.972-0.328,2.816-0.985s1.267-1.429,1.267-2.313
		c0-0.737-0.251-1.294-0.754-1.669c-0.503-0.376-1.86-0.725-4.073-1.046c-3.768-0.55-5.651-2.226-5.651-5.029
		c0-1.381,0.506-2.538,1.519-3.47c1.012-0.932,2.249-1.398,3.711-1.398c1.542,0,2.836,0.51,3.882,1.529
		c0.268-0.282,0.543-0.684,0.824-1.207H132.399z"/>
</g>
<path fill="#010101" d="M5.571,41.415c-0.502-0.716-1.012-0.943-1.431,0.201c-1.7,4.636,7.249,6.902,12.174,7.421
	c5.606,0.593,11.393,0.564,17.013,0.301c8.217-0.388,16.156-1.498,24.205-2.59c7.063-0.958,14.128-1.913,21.213-2.798
	c11.25-1.404,22.557-3.152,34.108-2.761c4.086,0.14,8.434,0.276,12.301,1.331c2.312,0.629,5.148,1.542,6.149,3.264
	c1.317,2.269-2.428,3.762-4.846,4.585c-4.286,1.457-12.189,0.689-13.629-3.057c-0.092-0.24,0.031-0.652-0.389-0.793
	c-1.068-0.355-1.418,1.097-1.363,1.449c0.171,1.117,1.428,2.202,2.683,2.849c2.785,1.439,7.305,1.937,10.631,1.621
	c1.803-0.169,3.933-0.641,5.424-1.377c1.521-0.751,2.743-2.136,3.102-3.427c0.765-2.741-2.795-5.029-5.92-6.287
	c-4.716-1.896-9.86-2.685-15.229-2.975c-4.672-0.253-9.554,0.177-14.114,0.801c0,0-27.137,3.962-34.278,5.032
	c-3.689,0.669-7.416,1.244-11.139,1.822c-6.848,1.062-13.791,1.878-20.799,2.288c-5.157,0.299-10.349,0.184-15.464-0.499
	c-3.619-0.483-8.1-1.297-9.627-3.947C6.257,43.715,5.661,41.543,5.571,41.415z"/>
</svg>
