<?xml version="1.0" encoding="utf-8"?>
<!-- Generator: Adobe Illustrator 16.0.0, SVG Export Plug-In . SVG Version: 6.00 Build 0)  -->
<!DOCTYPE svg PUBLIC "-//W3C//DTD SVG 1.1//EN" "http://www.w3.org/Graphics/SVG/1.1/DTD/svg11.dtd">
<svg version="1.1" id="Layer_1" xmlns="http://www.w3.org/2000/svg" xmlns:xlink="http://www.w3.org/1999/xlink" x="0px" y="0px"
	 width="135px" height="55px" viewBox="0 0 135 55" enable-background="new 0 0 135 55" xml:space="preserve">
<g>
	<path d="M17.318,34.384c-4.021,0-7.435-1.686-10.242-5.057c-2.807-3.371-4.21-6.975-4.21-10.81c0-4.608,1.473-8.54,4.419-11.796
		c2.946-3.255,6.368-4.883,10.265-4.883c3.665,0,6.951,1.655,9.859,4.964c2.907,3.31,4.361,7.068,4.361,11.274
		c0,4.331-1.458,8.131-4.373,11.402C24.482,32.748,21.123,34.384,17.318,34.384z M17.411,3.021c-1.702,0-3.229,0.391-4.582,1.172
		c-1.354,0.781-2.273,2.138-2.761,4.071c-0.487,1.934-0.73,5.305-0.73,10.114c0,3.325,0.139,5.978,0.417,7.957
		c0.278,1.98,0.986,3.619,2.123,4.917c1.137,1.3,2.919,1.949,5.347,1.949c1.484,0,2.973-0.395,4.465-1.184
		c1.492-0.788,2.466-2.339,2.923-4.651c0.456-2.312,0.684-5.865,0.684-10.659c0-4.345-0.282-7.345-0.847-9
		c-0.564-1.655-1.469-2.849-2.714-3.584C20.492,3.389,19.05,3.021,17.411,3.021z"/>
	<path d="M37.693,32.679V8.728h-2.765V7.742h2.648c1.778,0,3.074-0.097,3.886-0.29v25.227h2.726v0.986h-9.26v-0.986H37.693z"/>
	<path d="M52.385,18.181v14.498h2.532v0.986h-8.989v-0.986h2.707V19.457h-2.707v-0.986h2.745
		C49.988,18.471,51.225,18.374,52.385,18.181z M48.5,10.738c0-0.567,0.209-1.057,0.628-1.469c0.418-0.412,0.912-0.619,1.479-0.619
		s1.06,0.203,1.479,0.609c0.418,0.406,0.628,0.899,0.628,1.479c0,0.606-0.207,1.108-0.619,1.508
		c-0.413,0.399-0.909,0.599-1.489,0.599c-0.58,0-1.076-0.203-1.488-0.609C48.706,11.831,48.5,11.331,48.5,10.738z"/>
	<path d="M72.856,19.457L65.53,34.264h-0.502l-7.443-14.807h-2.339v-0.986h9.492v0.986h-2.919l5.064,10.284l4.988-10.284h-2.919
		v-0.986h6.282v0.986H72.856z"/>
	<path d="M83.47,18.181v14.498h2.531v0.986h-8.988v-0.986h2.706V19.457h-2.706v-0.986h2.745
		C81.072,18.471,82.31,18.374,83.47,18.181z M79.584,10.738c0-0.567,0.209-1.057,0.628-1.469c0.419-0.412,0.912-0.619,1.479-0.619
		c0.567,0,1.061,0.203,1.479,0.609c0.42,0.406,0.629,0.899,0.629,1.479c0,0.606-0.205,1.108-0.619,1.508
		c-0.412,0.399-0.908,0.599-1.488,0.599c-0.579,0-1.076-0.203-1.488-0.609C79.79,11.831,79.584,11.331,79.584,10.738z"/>
	<path d="M98.394,24.985v-1.972c0-1.611-0.133-2.668-0.396-3.17c-0.265-0.502-0.977-0.754-2.136-0.754
		c-2.088,0-3.132,0.399-3.132,1.199c0,0.232,0.087,0.486,0.261,0.763c0.174,0.277,0.261,0.603,0.261,0.977
		c0,0.528-0.174,0.931-0.521,1.208c-0.348,0.277-0.741,0.416-1.18,0.416c-0.566,0-1.005-0.177-1.314-0.531
		c-0.309-0.354-0.464-0.77-0.464-1.247c0-1.031,0.603-1.897,1.808-2.6c1.205-0.702,2.884-1.054,5.036-1.054
		c1.727,0,2.989,0.2,3.789,0.6c0.799,0.399,1.291,0.896,1.479,1.488c0.187,0.593,0.28,1.431,0.28,2.513v7.113
		c0,1.044,0.074,1.695,0.223,1.953c0.147,0.258,0.377,0.386,0.686,0.386c0.464,0,0.915-0.315,1.354-0.946h0.464
		c-0.335,1.881-1.431,2.822-3.286,2.822c-1.792,0-2.861-1.031-3.209-3.094c-1.508,2.063-3.273,3.094-5.297,3.094
		c-1.341,0-2.41-0.364-3.209-1.093c-0.799-0.728-1.198-1.62-1.198-2.677C88.689,27.092,91.924,25.294,98.394,24.985z M98.394,27.962
		v-2.088c-2.385,0.09-3.957,0.448-4.717,1.073c-0.761,0.625-1.141,1.531-1.141,2.716c0,0.863,0.229,1.534,0.687,2.011
		c0.457,0.477,0.982,0.715,1.575,0.715c0.76,0,1.446-0.254,2.059-0.764c0.612-0.509,1.021-1.021,1.228-1.536
		S98.394,28.865,98.394,27.962z"/>
	<path d="M110.804,17.949l-0.6-0.638c2.32-2.023,3.479-3.873,3.479-5.548c0-1.134-0.251-1.701-0.754-1.701
		c-0.206,0-0.38,0.213-0.521,0.638c-0.335,1.005-0.992,1.508-1.972,1.508c-0.58,0-1.066-0.209-1.46-0.628
		c-0.393-0.418-0.589-0.95-0.589-1.595c0-0.735,0.271-1.34,0.812-1.817c0.541-0.477,1.205-0.715,1.991-0.715
		c0.992,0,1.843,0.371,2.552,1.111c0.708,0.741,1.063,1.679,1.063,2.813C114.806,13.502,113.472,15.694,110.804,17.949z"/>
	<path d="M128.105,18.297v4.33h-0.793c-0.593-2.513-2.036-3.77-4.33-3.77c-0.992,0-1.82,0.261-2.483,0.783
		c-0.664,0.522-0.996,1.118-0.996,1.788c0,0.567,0.235,1.015,0.706,1.344c0.47,0.329,1.581,0.609,3.334,0.841
		c3.854,0.477,5.78,2.23,5.78,5.258c0,1.508-0.5,2.764-1.498,3.77c-0.999,1.005-2.239,1.508-3.722,1.508
		c-1.456,0-2.867-0.6-4.233-1.798l-1.353,1.159h-0.677v-5.702h0.677c1.107,3.647,2.97,5.471,5.586,5.471
		c0.992,0,1.895-0.315,2.707-0.947c0.812-0.632,1.218-1.373,1.218-2.224c0-0.708-0.242-1.242-0.726-1.604
		c-0.482-0.361-1.788-0.696-3.914-1.005c-3.622-0.528-5.432-2.139-5.432-4.833c0-1.327,0.485-2.438,1.459-3.334
		c0.973-0.896,2.162-1.344,3.566-1.344c1.482,0,2.726,0.49,3.731,1.469c0.258-0.271,0.521-0.657,0.792-1.16H128.105z"/>
</g>
<path fill="#010101" d="M6.213,40.306c-0.482-0.688-0.973-0.906-1.375,0.192c-1.635,4.457,6.966,6.635,11.7,7.133
	c5.387,0.568,10.949,0.542,16.351,0.289c7.897-0.373,15.527-1.439,23.262-2.488c6.788-0.922,13.58-1.838,20.387-2.689
	c10.813-1.35,21.681-3.03,32.783-2.654c3.925,0.135,8.104,0.266,11.82,1.28c2.223,0.604,4.949,1.481,5.911,3.136
	c1.266,2.18-2.334,3.616-4.656,4.408c-4.121,1.398-11.716,0.662-13.101-2.939c-0.087-0.23,0.031-0.626-0.372-0.762
	c-1.027-0.343-1.363,1.054-1.31,1.394c0.163,1.073,1.371,2.115,2.577,2.737c2.678,1.384,7.021,1.86,10.218,1.559
	c1.731-0.162,3.778-0.617,5.212-1.324c1.462-0.721,2.637-2.052,2.981-3.293c0.733-2.634-2.687-4.833-5.689-6.043
	c-4.533-1.82-9.477-2.58-14.637-2.859c-4.488-0.242-9.183,0.17-13.565,0.77c0,0-26.08,3.808-32.944,4.838
	c-3.545,0.643-7.126,1.195-10.705,1.75c-6.581,1.021-13.254,1.805-19.989,2.199c-4.957,0.287-9.947,0.177-14.863-0.479
	c-3.478-0.467-7.785-1.247-9.252-3.795C6.873,42.516,6.299,40.428,6.213,40.306z"/>
</svg>
